<mxfile host="app.diagrams.net" modified="2023-09-25T12:20:37.750Z" agent="Mozilla/5.0 (Windows NT 10.0; Win64; x64) AppleWebKit/537.36 (KHTML, like Gecko) Chrome/117.0.0.0 Safari/537.36 Edg/117.0.2045.36" version="21.8.2" etag="IbJjAA41EtO_rZrjZAXX" type="github">
  <diagram name="PÃ¡gina-1" id="vkt84SUBa_qGIGPjUuAJ">
    <mxGraphModel>
      <root>
        <mxCell id="0" />
        <mxCell id="1" parent="0" />
      </root>
    </mxGraphModel>
  </diagram>
</mxfile>
